<svg width="50" height="50" viewBox="0 0 50 50" fill="none" xmlns="http://www.w3.org/2000/svg">
<g clip-path="url(#clip0_1028_7)">
<path fill-rule="evenodd" clip-rule="evenodd" d="M6.78102 7.64053C5.61112 6.27566 6.58087 4.16699 8.37862 4.16699H34.375C39.5527 4.16699 43.75 8.36433 43.75 13.542C43.75 18.7197 39.5527 22.917 34.375 22.917H8.37862C6.58075 22.917 5.61121 20.8082 6.78102 19.4434L8.35304 17.6094C10.3592 15.2689 10.3592 11.8151 8.35304 9.47455L6.78102 7.64053ZM12.6301 8.33366C14.4891 11.5495 14.4891 15.5345 12.6301 18.7503H34.375C37.2515 18.7503 39.5833 16.4185 39.5833 13.542C39.5833 10.6655 37.2515 8.33366 34.375 8.33366H12.6301ZM6.25 34.3753C6.25 29.1976 10.4473 25.0003 15.625 25.0003H41.6215C43.4192 25.0003 44.3887 27.1091 43.219 28.4739L41.6469 30.3078C39.6408 32.6484 39.6408 36.1022 41.6469 38.4428L43.219 40.2768C44.3887 41.6416 43.4192 43.7503 41.6215 43.7503H15.625C10.4473 43.7503 6.25 39.553 6.25 34.3753ZM15.625 29.167C12.7485 29.167 10.4167 31.4989 10.4167 34.3753C10.4167 37.2518 12.7485 39.5837 15.625 39.5837H37.37C35.5108 36.3678 35.5108 32.3828 37.37 29.167H15.625Z" fill="#2A7AE4"/>
<g clip-path="url(#clip1_1028_7)">
<path fill-rule="evenodd" clip-rule="evenodd" d="M6.78113 7.64053C5.61124 6.27566 6.58099 4.16699 8.37874 4.16699H34.3751C39.5528 4.16699 43.7501 8.36433 43.7501 13.542C43.7501 18.7197 39.5528 22.917 34.3751 22.917H8.37874C6.58086 22.917 5.61132 20.8082 6.78113 19.4434L8.35315 17.6094C10.3593 15.2689 10.3593 11.8151 8.35315 9.47455L6.78113 7.64053ZM12.6302 8.33366C14.4892 11.5495 14.4892 15.5345 12.6302 18.7503H34.3751C37.2516 18.7503 39.5834 16.4185 39.5834 13.542C39.5834 10.6655 37.2516 8.33366 34.3751 8.33366H12.6302Z" fill="#464646"/>
</g>
</g>
<defs>
<clipPath id="clip0_1028_7">
<rect width="50" height="50" fill="white"/>
</clipPath>
<clipPath id="clip1_1028_7">
<rect width="50" height="50" fill="white"/>
</clipPath>
</defs>
</svg>
