<svg width="25" height="22" viewBox="0 0 25 22" fill="none" xmlns="http://www.w3.org/2000/svg">
<path d="M24.2588 4.998L21.4088 2.802C21.2151 2.67767 21.0046 2.58189 20.7836 2.5176C20.5635 2.44637 20.3344 2.40678 20.1032 2.4H11.9L12.8612 8.4H20.1032C20.3 8.4 20.546 8.3556 20.7824 8.2824C21.0188 8.2092 21.2468 8.1084 21.4076 7.9992L24.2576 5.8008C24.4196 5.6916 24.5 5.5464 24.5 5.4C24.5 5.2536 24.4196 5.1084 24.2588 4.998ZM10.7 0H9.5C9.34087 0 9.18826 0.0632141 9.07574 0.175736C8.96321 0.288258 8.9 0.44087 8.9 0.6V4.8H4.8968C4.6976 4.8 4.4528 4.8444 4.2164 4.9188C3.9788 4.9908 3.752 5.0904 3.5912 5.202L0.7412 7.398C0.5792 7.5072 0.5 7.6536 0.5 7.8C0.5 7.9452 0.5792 8.0904 0.7412 8.202L3.5912 10.4004C3.752 10.5096 3.9788 10.6104 4.2164 10.6824C4.4528 10.7556 4.6976 10.8 4.8968 10.8H8.9V21C8.9 21.1591 8.96321 21.3117 9.07574 21.4243C9.18826 21.5368 9.34087 21.6 9.5 21.6H10.7C10.8591 21.6 11.0117 21.5368 11.1243 21.4243C11.2368 21.3117 11.3 21.1591 11.3 21V0.6C11.3 0.44087 11.2368 0.288258 11.1243 0.175736C11.0117 0.0632141 10.8591 0 10.7 0Z" fill="#464646"/>
</svg>
