<svg width="766" height="766" viewBox="0 0 766 766" fill="none" xmlns="http://www.w3.org/2000/svg">
<path d="M255.667 733.667C290.829 733.667 319.333 705.163 319.333 670.001C319.333 634.839 290.829 606.334 255.667 606.334C220.505 606.334 192 634.839 192 670.001C192 705.163 220.505 733.667 255.667 733.667Z" stroke="#464646" stroke-width="63.6667" stroke-miterlimit="10"/>
<path d="M542.667 733.667C577.829 733.667 606.333 705.163 606.333 670.001C606.333 634.839 577.829 606.334 542.667 606.334C507.505 606.334 479 634.839 479 670.001C479 705.163 507.505 733.667 542.667 733.667Z" stroke="#464646" stroke-width="63.6667" stroke-miterlimit="10"/>
<path d="M542.667 606.334H173.333C167.396 606.334 161.517 605.159 156.035 602.877C150.554 600.594 145.578 597.25 141.395 593.036C137.212 588.822 133.904 583.822 131.663 578.324C129.421 572.825 128.289 566.938 128.333 561C128.312 555.127 129.449 549.306 131.679 543.872C133.91 538.438 137.191 533.498 141.333 529.334L224 446.667L145.333 106.334C140.385 85.0389 128.291 66.0815 111.067 52.6174C93.8428 39.1533 72.5264 31.9948 50.6667 32.3338H0.666748" stroke="#464646" stroke-width="63.6667" stroke-miterlimit="10"/>
<path d="M734 96V159.667L670.333 446.667H224" stroke="#464646" stroke-width="63.6667" stroke-miterlimit="10"/>
</svg>
