<svg width="25" height="24" viewBox="0 0 25 24" fill="none" xmlns="http://www.w3.org/2000/svg">
<g clip-path="url(#clip0_48797_126)">
<path d="M12.5 24.0002L0.5 16.8002V7.2002L12.5 14.4002V24.0002Z" fill="#89664C"/>
<path d="M12.5 14.4002V24.0002L24.5 16.8002V7.2002L12.5 14.4002Z" fill="#FED0AC"/>
<path d="M0.5 7.2L12.5 14.4L24.5 7.2L12.5 0L0.5 7.2Z" fill="#D3976E"/>
<path d="M19.5875 10.1248L7.625 2.9248L5.375 4.2748L17.375 11.4748L19.5875 10.1248Z" fill="#89664C"/>
<path d="M15.2373 2.5499L12.5748 0.899902L10.3623 2.2499L13.0248 3.8624L15.2373 2.5499Z" fill="#D0D0D0"/>
<path d="M19.5502 10.1626L17.4502 11.4376V14.8876L19.5502 13.6126V10.1626Z" fill="#D3976E"/>
<path d="M23.9373 8.2876L21.7998 9.5626V13.0126L23.9373 11.7376V8.2876Z" fill="white"/>
<path d="M16.0999 16.3125L13.2124 18.0375V22.7625L16.0999 21V16.3125Z" fill="white"/>
<path d="M17.4502 21.0375L19.5502 19.7625V16.3125L17.4502 17.5875V21.0375Z" fill="#D3976E"/>
</g>
<defs>
<clipPath id="clip0_48797_126">
<rect width="24" height="24" fill="white" transform="translate(0.5)"/>
</clipPath>
</defs>
</svg>
