<svg width="800" height="800" viewBox="0 0 800 800" fill="none" xmlns="http://www.w3.org/2000/svg">
<g clip-path="url(#clip0_1058_9)">
<path d="M600 120H760M680 40V200" stroke="#2A7AE4" stroke-width="80" stroke-linecap="round" stroke-linejoin="round"/>
<path d="M440 53.9999C414.364 44.6656 387.282 39.9264 360 39.9999C315.988 39.9496 272.811 52.0024 235.188 74.8401C197.566 97.6778 166.948 130.421 146.683 169.489C126.417 208.557 117.284 252.445 120.284 296.354C123.283 340.263 138.298 382.502 163.687 418.452C189.077 454.401 223.863 482.677 264.241 500.187C304.619 517.698 349.034 523.767 392.63 517.733C436.226 511.699 477.323 493.794 511.427 465.975C545.531 438.155 571.329 401.494 586 360" stroke="#2A7AE4" stroke-width="80" stroke-linecap="round" stroke-linejoin="round"/>
<path d="M531.6 447.6C574.028 458.929 611.547 483.908 638.367 518.68C665.188 553.453 679.818 596.086 680 640V680C680 680 600 760 360 760C120 760 40 680 40 680V640C40.1821 596.086 54.8124 553.453 81.6327 518.68C108.453 483.908 145.972 458.929 188.4 447.6" stroke="#2A7AE4" stroke-width="80" stroke-linecap="round" stroke-linejoin="round"/>
</g>
<defs>
<clipPath id="clip0_1058_9">
<rect width="800" height="800" fill="white"/>
</clipPath>
</defs>
</svg>
