<?xml version="1.0" encoding="UTF-8"?>
<svg xmlns="http://www.w3.org/2000/svg" xmlns:xlink="http://www.w3.org/1999/xlink" width="36px" height="36px" viewBox="0 0 36 36" version="1.1">
<g id="surface1">
<path style=" stroke:none;fill-rule:nonzero;fill:rgb(27.45098%,27.45098%,27.45098%);fill-opacity:1;" d="M 33.179688 12.742188 C 31.152344 5.210938 25 0 18 0 C 11.023438 0 4.84375 5.21875 2.820312 12.742188 C 1.238281 12.914062 0 14.25 0 15.882812 L 0 24.351562 C 0 25.675781 0.808594 26.808594 1.957031 27.285156 C 2.367188 30.984375 5.476562 33.882812 9.285156 33.882812 L 15.019531 33.882812 C 15.457031 35.113281 16.621094 36 18 36 L 24.351562 36 C 26.105469 36 27.53125 34.574219 27.53125 32.824219 C 27.53125 31.070312 26.105469 29.648438 24.351562 29.648438 L 18 29.648438 C 16.621094 29.648438 15.457031 30.535156 15.019531 31.765625 L 9.285156 31.765625 C 6.726562 31.765625 4.589844 29.945312 4.101562 27.53125 L 6.351562 27.53125 L 6.351562 25.410156 L 8.46875 25.410156 L 8.46875 14.824219 L 6.351562 14.824219 L 6.351562 12.707031 L 5.070312 12.707031 C 7.003906 6.433594 12.167969 2.117188 18 2.117188 C 23.847656 2.117188 28.996094 6.429688 30.929688 12.707031 L 29.648438 12.707031 L 29.648438 14.824219 L 27.53125 14.824219 L 27.53125 25.410156 L 29.648438 25.410156 L 29.648438 27.53125 L 32.835938 27.53125 C 34.582031 27.53125 36 26.105469 36 24.351562 L 36 15.882812 C 36 14.25 34.761719 12.914062 33.179688 12.742188 Z M 18 31.765625 L 24.351562 31.765625 C 24.933594 31.765625 25.410156 32.238281 25.410156 32.824219 C 25.410156 33.40625 24.933594 33.882812 24.351562 33.882812 L 18 33.882812 C 17.417969 33.882812 16.941406 33.40625 16.941406 32.824219 C 16.941406 32.238281 17.417969 31.765625 18 31.765625 Z M 4.234375 25.410156 L 3.164062 25.410156 C 2.585938 25.410156 2.117188 24.9375 2.117188 24.351562 L 2.117188 15.882812 C 2.117188 15.296875 2.585938 14.824219 3.164062 14.824219 L 4.234375 14.824219 Z M 33.882812 24.351562 C 33.882812 24.9375 33.414062 25.410156 32.835938 25.410156 L 31.765625 25.410156 L 31.765625 14.824219 L 32.835938 14.824219 C 33.414062 14.824219 33.882812 15.296875 33.882812 15.882812 Z M 33.882812 24.351562 "/>
</g>
</svg>
