<svg width="25" height="24" viewBox="0 0 25 24" fill="none" xmlns="http://www.w3.org/2000/svg">
<g clip-path="url(#clip0_48797_142)">
<path d="M23.75 7.5H1.25V10.5H23.75V7.5Z" fill="#506C7F"/>
<path d="M1.25 19.5C1.25 19.914 1.586 20.25 2 20.25H23C23.414 20.25 23.75 19.914 23.75 19.5V11.25H1.25V19.5Z" fill="#B4CCB9"/>
<path d="M23 3.75H2C1.586 3.75 1.25 4.08562 1.25 4.5V6.75H23.75V4.5C23.75 4.08562 23.414 3.75 23 3.75Z" fill="#B4CCB9"/>
<path d="M23 3H2C1.17088 3 0.5 3.67088 0.5 4.5V19.5C0.5 20.3291 1.17088 21 2 21H23C23.8291 21 24.5 20.3291 24.5 19.5V4.5C24.5 3.67088 23.8291 3 23 3ZM23.75 19.5C23.75 19.914 23.414 20.25 23 20.25H2C1.586 20.25 1.25 19.914 1.25 19.5V11.25H23.75V19.5ZM23.75 10.5H1.25V7.5H23.75V10.5ZM23.75 6.75H1.25V4.5C1.25 4.08562 1.586 3.75 2 3.75H23C23.414 3.75 23.75 4.08562 23.75 4.5V6.75Z" fill="#394240"/>
<path d="M4.625 15H9.875C10.0824 15 10.25 14.8324 10.25 14.625C10.25 14.4176 10.0824 14.25 9.875 14.25H4.625C4.41763 14.25 4.25 14.4176 4.25 14.625C4.25 14.8324 4.41763 15 4.625 15Z" fill="#394240"/>
<path d="M11.375 15H13.625C13.8324 15 14 14.8324 14 14.625C14 14.4176 13.8324 14.25 13.625 14.25H11.375C11.1676 14.25 11 14.4176 11 14.625C11 14.8324 11.1676 15 11.375 15Z" fill="#394240"/>
<path d="M4.625 17.25H8.375C8.58238 17.25 8.75 17.0824 8.75 16.875C8.75 16.6676 8.58238 16.5 8.375 16.5H4.625C4.41763 16.5 4.25 16.6676 4.25 16.875C4.25 17.0824 4.41763 17.25 4.625 17.25Z" fill="#394240"/>
<path d="M17.375 17.25H20.375C20.5824 17.25 20.75 17.0824 20.75 16.875V14.625C20.75 14.4176 20.5824 14.25 20.375 14.25H17.375C17.1676 14.25 17 14.4176 17 14.625V16.875C17 17.0824 17.1676 17.25 17.375 17.25ZM17.75 15H20V16.5H17.75V15Z" fill="#394240"/>
<path d="M20 15H17.75V16.5H20V15Z" fill="#F9EBB2"/>
</g>
<defs>
<clipPath id="clip0_48797_142">
<rect width="24" height="24" fill="white" transform="translate(0.5)"/>
</clipPath>
</defs>
</svg>
