<svg width="98" height="98" viewBox="0 0 98 98" fill="none" xmlns="http://www.w3.org/2000/svg">
<path d="M49.003 49.0004C56.9559 49.0004 63.403 42.5533 63.403 34.6004C63.403 26.6475 56.9559 20.2004 49.003 20.2004C41.0501 20.2004 34.603 26.6475 34.603 34.6004C34.603 42.5533 41.0501 49.0004 49.003 49.0004Z" stroke="#2A7AE4" stroke-width="1.5"/>
<path d="M77.6532 87.3997C76.8895 73.5205 72.64 63.3997 49.001 63.3997C25.3625 63.3997 21.113 73.5205 20.3491 87.3997" stroke="#2A7AE4" stroke-width="1.5" stroke-linecap="round"/>
<path d="M25.0029 7.42154C32.0631 3.33746 40.2602 1 49.0029 1C75.5124 1 97.0029 22.4903 97.0029 49C97.0029 75.5094 75.5124 97 49.0029 97C22.4933 97 1.00293 75.5094 1.00293 49C1.00293 40.2573 3.34039 32.0602 7.42447 25" stroke="#2A7AE4" stroke-width="1.5" stroke-linecap="round"/>
</svg>
