<svg width="25" height="24" viewBox="0 0 25 24" fill="none" xmlns="http://www.w3.org/2000/svg">
<g clip-path="url(#clip0_48797_182)">
<path fill-rule="evenodd" clip-rule="evenodd" d="M20.3751 21.6H4.62581C3.77814 21.6 3.15218 20.7636 3.4719 19.9944C4.95532 16.4376 8.44032 14.4 12.4998 14.4C16.5605 14.4 20.0455 16.4376 21.529 19.9944C21.8487 20.7636 21.2227 21.6 20.3751 21.6ZM7.6 7.19998C7.6 4.55278 9.79879 2.39998 12.4998 2.39998C15.2021 2.39998 17.3996 4.55278 17.3996 7.19998C17.3996 9.84718 15.2021 12 12.4998 12C9.79879 12 7.6 9.84718 7.6 7.19998ZM24.4468 21.1632C23.5563 17.1324 20.7707 14.1575 17.1044 12.8075C19.0472 11.2751 20.1803 8.79712 19.7638 6.08392C19.2812 2.93632 16.6083 0.417572 13.3818 0.0503722C8.92786 -0.457228 5.15008 2.93878 5.15008 7.19998C5.15008 9.46798 6.22315 11.4887 7.89644 12.8075C4.22892 14.1575 1.4446 17.1324 0.552829 21.1632C0.229441 22.6284 1.4348 24 2.96477 24H22.0349C23.5661 24 24.7714 22.6284 24.4468 21.1632Z" fill="#464646"/>
</g>
<defs>
<clipPath id="clip0_48797_182">
<rect width="24" height="24" fill="white" transform="translate(0.5)"/>
</clipPath>
</defs>
</svg>
