<svg width="33" height="33" viewBox="0 0 33 33" fill="none" xmlns="http://www.w3.org/2000/svg">
<path fill-rule="evenodd" clip-rule="evenodd" d="M16.3337 25.0605C21.1536 25.0605 25.061 21.1532 25.061 16.3332C25.061 11.5133 21.1536 7.60596 16.3337 7.60596C11.5138 7.60596 7.60645 11.5133 7.60645 16.3332C7.60645 21.1532 11.5138 25.0605 16.3337 25.0605ZM16.3337 22.1514C19.547 22.1514 22.1519 19.5465 22.1519 16.3332C22.1519 13.1199 19.547 10.515 16.3337 10.515C13.1204 10.515 10.5155 13.1199 10.5155 16.3332C10.5155 19.5465 13.1204 22.1514 16.3337 22.1514Z" fill="#0F0F0F"/>
<path d="M25.061 6.15137C24.2576 6.15137 23.6064 6.8026 23.6064 7.60591C23.6064 8.40923 24.2576 9.06046 25.061 9.06046C25.8643 9.06046 26.5155 8.40923 26.5155 7.60591C26.5155 6.8026 25.8643 6.15137 25.061 6.15137Z" fill="#0F0F0F"/>
<path fill-rule="evenodd" clip-rule="evenodd" d="M1.28471 5.09843C0.333496 6.9653 0.333496 9.40917 0.333496 14.2969V18.3696C0.333496 23.2573 0.333496 25.7013 1.28471 27.568C2.12142 29.2102 3.45652 30.5453 5.09867 31.382C6.96554 32.3333 9.40941 32.3333 14.2971 32.3333H18.3699C23.2576 32.3333 25.7015 32.3333 27.5683 31.382C29.2104 30.5453 30.5456 29.2102 31.3822 27.568C32.3335 25.7013 32.3335 23.2573 32.3335 18.3696V14.2969C32.3335 9.40917 32.3335 6.9653 31.3822 5.09843C30.5456 3.45628 29.2104 2.12118 27.5683 1.28447C25.7015 0.333252 23.2576 0.333252 18.3699 0.333252H14.2971C9.40941 0.333252 6.96554 0.333252 5.09867 1.28447C3.45652 2.12118 2.12142 3.45628 1.28471 5.09843ZM18.3699 3.24234H14.2971C11.8053 3.24234 10.1113 3.24461 8.80198 3.35158C7.52657 3.45578 6.87435 3.64466 6.41937 3.87648C5.32461 4.4343 4.43454 5.32436 3.87673 6.41913C3.6449 6.87411 3.45603 7.52633 3.35182 8.80173C3.24486 10.1111 3.24259 11.805 3.24259 14.2969V18.3696C3.24259 20.8615 3.24486 22.5554 3.35182 23.8647C3.45603 25.1402 3.6449 25.7925 3.87673 26.2474C4.43454 27.3421 5.32461 28.2322 6.41937 28.79C6.87435 29.0218 7.52657 29.2108 8.80198 29.3149C10.1113 29.4218 11.8053 29.4242 14.2971 29.4242H18.3699C20.8618 29.4242 22.5556 29.4218 23.865 29.3149C25.1405 29.2108 25.7927 29.0218 26.2477 28.79C27.3424 28.2322 28.2324 27.3421 28.7902 26.2474C29.0221 25.7925 29.211 25.1402 29.3152 23.8647C29.4221 22.5554 29.4244 20.8615 29.4244 18.3696V14.2969C29.4244 11.805 29.4221 10.1111 29.3152 8.80173C29.211 7.52633 29.0221 6.87411 28.7902 6.41913C28.2324 5.32436 27.3424 4.4343 26.2477 3.87648C25.7927 3.64466 25.1405 3.45578 23.865 3.35158C22.5556 3.24461 20.8618 3.24234 18.3699 3.24234Z" fill="#0F0F0F"/>
</svg>
