<svg width="188" height="51" viewBox="0 0 188 51" fill="none" xmlns="http://www.w3.org/2000/svg">
<g clip-path="url(#clip0_48632_103)">
<path fill-rule="evenodd" clip-rule="evenodd" d="M6.78102 8.1402C5.61112 6.77532 6.58087 4.66666 8.37862 4.66666H34.375C39.5527 4.66666 43.75 8.86399 43.75 14.0417C43.75 19.2193 39.5527 23.4167 34.375 23.4167H8.37862C6.58075 23.4167 5.61121 21.3079 6.78102 19.9431L8.35304 18.1091C10.3592 15.7686 10.3592 12.3148 8.35304 9.97422L6.78102 8.1402ZM12.6301 8.83332C14.4891 12.0492 14.4891 16.0342 12.6301 19.25H34.375C37.2515 19.25 39.5833 16.9181 39.5833 14.0417C39.5833 11.1652 37.2515 8.83332 34.375 8.83332H12.6301ZM6.25 34.875C6.25 29.6973 10.4473 25.5 15.625 25.5H41.6215C43.4192 25.5 44.3887 27.6087 43.219 28.9735L41.6469 30.8075C39.6408 33.1481 39.6408 36.6019 41.6469 38.9425L43.219 40.7764C44.3887 42.1412 43.4192 44.25 41.6215 44.25H15.625C10.4473 44.25 6.25 40.0527 6.25 34.875ZM15.625 29.6667C12.7485 29.6667 10.4167 31.9985 10.4167 34.875C10.4167 37.7514 12.7485 40.0833 15.625 40.0833H37.37C35.5108 36.8675 35.5108 32.8825 37.37 29.6667H15.625Z" fill="#2A7AE4"/>
<g clip-path="url(#clip1_48632_103)">
<path fill-rule="evenodd" clip-rule="evenodd" d="M6.78113 8.1402C5.61124 6.77532 6.58099 4.66666 8.37874 4.66666H34.3751C39.5528 4.66666 43.7501 8.86399 43.7501 14.0417C43.7501 19.2193 39.5528 23.4167 34.3751 23.4167H8.37874C6.58086 23.4167 5.61132 21.3079 6.78113 19.9431L8.35315 18.1091C10.3593 15.7686 10.3593 12.3148 8.35315 9.97422L6.78113 8.1402ZM12.6302 8.83332C14.4892 12.0492 14.4892 16.0342 12.6302 19.25H34.3751C37.2516 19.25 39.5834 16.9181 39.5834 14.0417C39.5834 11.1652 37.2516 8.83332 34.3751 8.83332H12.6302Z" fill="#464646"/>
</g>
</g>
<path d="M52 42.3182V20.5H60.608C62.2557 20.5 63.6619 20.7947 64.8267 21.3842C65.9986 21.9666 66.8899 22.794 67.5007 23.8665C68.1186 24.9318 68.4276 26.1854 68.4276 27.6271C68.4276 29.076 68.1151 30.3224 67.4901 31.3665C66.8651 32.4034 65.9595 33.1989 64.7734 33.7528C63.5945 34.3068 62.1669 34.5838 60.4908 34.5838H56.6129L56.6035 32.8184L56.6129 30.8764H59.745C60.6257 30.8764 61.3572 30.7557 61.9396 30.5142C62.522 30.2727 62.9553 29.9105 63.2393 29.4276C63.5305 28.9446 63.6761 28.3445 63.6761 27.6271C63.6761 26.9027 63.5305 26.2919 63.2393 25.7947C62.9553 25.2976 62.5185 24.9212 61.929 24.6655C61.3466 24.4027 60.6115 24.2713 59.7237 24.2713H56.6129V39.6974V42.3182H52ZM64.7734 33.7528L69.2053 42.3182H64.1129L60.2821 34.5838L62.2279 34.4729L63.6761 34.1676L64.7734 33.7528Z" fill="#2A7AE4"/>
<path d="M78.796 42.6378C77.1128 42.6378 75.6639 42.2969 74.4494 41.6151C73.242 40.9261 72.3116 39.9531 71.6582 38.696C71.0048 37.4318 70.6781 35.9368 70.6781 34.2109C70.6781 32.5277 71.0048 31.0504 71.6582 29.7791C72.3116 28.5078 73.2314 27.517 74.4174 26.8068C75.6106 26.0966 77.0098 25.7415 78.6149 25.7415C79.6944 25.7415 80.6994 25.9155 81.6298 26.2635C82.5673 26.6044 83.3841 27.1193 84.0801 27.8082C84.7832 28.4972 85.3301 29.3636 85.7207 30.4077C86.1113 31.4446 86.3066 32.6591 86.3066 34.0511V35.2976L75.1632 35.3082L72.4892 33.8913L75.1632 32.6342L82.0346 32.4851C82.0346 31.8317 81.8926 31.2528 81.6085 30.7486C81.3244 30.2443 80.9302 29.8501 80.426 29.5661C79.9288 29.2749 79.35 29.1293 78.6895 29.1293C78.0005 29.1293 77.3897 29.2891 76.8571 29.6087C76.3315 29.9212 75.9196 30.3438 75.6213 30.8764C75.323 31.402 75.1703 31.9879 75.1632 32.6342L72.4892 33.8913L75.1632 35.3082C75.1632 36.1179 75.3123 36.8175 75.6106 37.407C75.916 37.9965 76.3457 38.451 76.8997 38.7706C77.4537 39.0902 78.1106 39.25 78.8706 39.25C79.3748 39.25 79.8365 39.179 80.2555 39.0369C80.6745 38.8949 81.0332 38.6818 81.3315 38.3977C81.6298 38.1136 81.8571 37.7656 82.0133 37.3537L86.2108 37.6307C85.9977 38.6392 85.5609 39.5199 84.9004 40.2727C84.247 41.0185 83.4018 41.6009 82.3649 42.0199C81.3351 42.4318 80.1454 42.6378 78.796 42.6378Z" fill="#2A7AE4"/>
<path d="M93.9345 42.6271C92.8904 42.6271 91.96 42.446 91.1433 42.0838C90.3265 41.7145 89.6802 41.1712 89.2044 40.4538C88.7356 39.7294 88.5012 38.8274 88.5012 37.7479C88.5012 36.8388 88.6681 36.0753 89.002 35.4574C89.3358 34.8395 89.7903 34.3423 90.3656 33.9659C90.9409 33.5895 91.5943 33.3054 92.3258 33.1136C93.0645 32.9219 93.8386 32.7869 94.6483 32.7088C95.6 32.6094 96.367 32.517 96.9494 32.4318C97.5318 32.3395 97.9544 32.2045 98.2172 32.027C98.4799 31.8494 98.6113 31.5866 98.6113 31.2386V31.1747C98.6113 30.5 98.3983 29.978 97.9721 29.6087C97.5531 29.2393 96.9565 29.0547 96.1824 29.0547C95.3656 29.0547 94.7157 29.2358 94.2328 29.598C93.7498 29.9531 93.4302 30.4006 93.274 30.9403L89.0765 30.5994C89.2896 29.6051 89.7086 28.7457 90.3336 28.0213C90.9586 27.2898 91.7647 26.7287 92.752 26.3381C93.7463 25.9403 94.8968 25.7415 96.2037 25.7415C97.1128 25.7415 97.9828 25.848 98.8137 26.0611C99.6518 26.2741 100.394 26.6044 101.04 27.0518C101.694 27.4993 102.209 28.0746 102.585 28.7777C102.961 29.4737 103.15 30.3082 103.15 31.2812V42.3182H98.8457V40.049H98.7179C98.4551 40.5604 98.1035 41.0114 97.6632 41.402C97.2228 41.7855 96.6937 42.0874 96.0758 42.3075C95.4579 42.5206 94.7441 42.6271 93.9345 42.6271ZM95.2342 39.495C95.9018 39.495 96.4913 39.3636 97.0027 39.1009C97.514 38.831 97.9153 38.4688 98.2065 38.0142C98.4977 37.5597 98.6433 37.0447 98.6433 36.4695V34.733C98.5012 34.8253 98.3059 34.9105 98.0574 34.9886C97.8159 35.0597 97.5424 35.1271 97.237 35.1911C96.9316 35.2479 96.6262 35.3011 96.3208 35.3509C96.0154 35.3935 95.7385 35.4325 95.4899 35.468C94.9572 35.5462 94.492 35.6705 94.0943 35.8409C93.6966 36.0114 93.3876 36.2422 93.1674 36.5334C92.9473 36.8175 92.8372 37.1726 92.8372 37.5987C92.8372 38.2166 93.0609 38.6889 93.5083 39.0156C93.9629 39.3352 94.5382 39.495 95.2342 39.495Z" fill="#2A7AE4"/>
<path d="M112.7 42.5845C111.458 42.5845 110.332 42.2649 109.323 41.6257C108.322 40.9794 107.526 40.0312 106.937 38.7812C106.355 37.5241 106.063 35.983 106.063 34.1577C106.063 32.2827 106.365 30.7237 106.969 29.4808C107.573 28.2308 108.375 27.2969 109.377 26.679C110.385 26.054 111.49 25.7415 112.69 25.7415C113.606 25.7415 114.369 25.8977 114.98 26.2102C115.598 26.5156 116.095 26.8991 116.472 27.3608C116.855 27.8153 117.146 28.2628 117.345 28.7031H117.484V20.5H122.012V42.3182H117.537V39.6974H117.345C117.132 40.152 116.83 40.603 116.44 41.0504C116.056 41.4908 115.556 41.8565 114.938 42.1477C114.327 42.4389 113.581 42.5845 112.7 42.5845ZM114.139 38.973C114.87 38.973 115.488 38.7741 115.992 38.3764C116.504 37.9716 116.894 37.407 117.164 36.6825C117.441 35.9581 117.58 35.1094 117.58 34.1364C117.58 33.1634 117.445 32.3182 117.175 31.6009C116.905 30.8835 116.514 30.3295 116.003 29.9389C115.492 29.5483 114.87 29.353 114.139 29.353C113.393 29.353 112.764 29.5554 112.253 29.9602C111.742 30.3651 111.355 30.9261 111.092 31.6435C110.829 32.3608 110.698 33.1918 110.698 34.1364C110.698 35.0881 110.829 35.9297 111.092 36.6612C111.362 37.3857 111.749 37.9538 112.253 38.3658C112.764 38.7706 113.393 38.973 114.139 38.973Z" fill="#2A7AE4"/>
<path d="M142.249 20.5V42.3182H138.265L128.773 28.5859H128.613V42.3182H124V20.5H128.048L137.466 34.2216H137.658V20.5H142.249Z" fill="#464646"/>
<path d="M153.369 42.6378C151.714 42.6378 150.283 42.2862 149.075 41.5831C147.875 40.8729 146.948 39.8857 146.295 38.6214C145.642 37.3501 145.315 35.8764 145.315 34.2003C145.315 32.5099 145.642 31.0327 146.295 29.7685C146.948 28.4972 147.875 27.5099 149.075 26.8068C150.283 26.0966 151.714 25.7415 153.369 25.7415C155.024 25.7415 156.451 26.0966 157.651 26.8068C158.859 27.5099 159.789 28.4972 160.443 29.7685C161.096 31.0327 161.423 32.5099 161.423 34.2003C161.423 35.8764 161.096 37.3501 160.443 38.6214C159.789 39.8857 158.859 40.8729 157.651 41.5831C156.451 42.2862 155.024 42.6378 153.369 42.6378ZM153.39 39.1222C154.143 39.1222 154.771 38.9091 155.276 38.483C155.78 38.0497 156.16 37.4602 156.416 36.7145C156.678 35.9688 156.81 35.12 156.81 34.1683C156.81 33.2166 156.678 32.3679 156.416 31.6222C156.16 30.8764 155.78 30.2869 155.276 29.8537C154.771 29.4205 154.143 29.2038 153.39 29.2038C152.63 29.2038 151.991 29.4205 151.472 29.8537C150.961 30.2869 150.574 30.8764 150.311 31.6222C150.056 32.3679 149.928 33.2166 149.928 34.1683C149.928 35.12 150.056 35.9688 150.311 36.7145C150.574 37.4602 150.961 38.0497 151.472 38.483C151.991 38.9091 152.63 39.1222 153.39 39.1222Z" fill="#464646"/>
<path d="M167.192 42.3182L162.738 25.9545H167.33L169.866 36.9489H170.015L172.657 25.9545H177.163L179.848 36.8849H179.986L182.479 25.9545H187.06L182.618 42.3182H177.813L175.001 32.027H174.798L171.986 42.3182H167.192Z" fill="#464646"/>
<defs>
<clipPath id="clip0_48632_103">
<rect width="50" height="50" fill="white" transform="translate(0 0.5)"/>
</clipPath>
<clipPath id="clip1_48632_103">
<rect width="50" height="50" fill="white" transform="translate(0 0.5)"/>
</clipPath>
</defs>
</svg>
