<svg width="33" height="26" viewBox="0 0 33 26" fill="none" xmlns="http://www.w3.org/2000/svg">
<path d="M29.6639 6.47245C29.6826 6.75379 29.6826 7.03645 29.6826 7.32045C29.6826 15.9965 23.0773 26.0005 11.0026 26.0005V25.9951C7.43594 26.0005 3.94261 24.9791 0.939941 23.0525C1.45861 23.1151 1.97994 23.1458 2.50261 23.1471C5.45994 23.1498 8.33194 22.1578 10.6559 20.3311C7.84661 20.2778 5.38261 18.4458 4.52261 15.7711C5.50661 15.9605 6.51994 15.9218 7.48661 15.6591C4.42261 15.0405 2.21994 12.3485 2.21994 9.22312C2.21994 9.19512 2.21994 9.16712 2.21994 9.14045C3.13327 9.64979 4.15461 9.93112 5.19994 9.96179C2.31461 8.03512 1.42394 4.19779 3.16661 1.19779C6.49994 5.29912 11.4186 7.79245 16.6973 8.05779C16.1679 5.77779 16.8919 3.38845 18.5959 1.78445C21.2399 -0.702212 25.3986 -0.574212 27.8853 2.06979C29.3559 1.78045 30.7653 1.24045 32.0546 0.476454C31.5639 1.99645 30.5386 3.28712 29.1679 4.10845C30.4706 3.95245 31.7413 3.60445 32.9399 3.07379C32.0586 4.39245 30.9493 5.54312 29.6639 6.47245Z" fill="black"/>
</svg>
